<svg xmlns="http://www.w3.org/2000/svg" width="32" height="32" viewBox="0 0 32 32" id="down-arrow"><path d="M17.066 2.134c-8.248 0-14.934 6.686-14.934 14.934S8.82 32 17.066 32 32 25.314 32 17.066 25.314 2.134 17.066 2.134zm7.312 16.654l-6.69 5.918c-.2.2-.462.296-.724.292a1.005 1.005 0 0 1-.726-.292l-6.69-5.918a1.007 1.007 0 0 1 1.422-1.422l5.992 5.3 5.992-5.3a1.007 1.007 0 0 1 1.424 1.422zm0-7.172l-6.69 5.918c-.2.2-.462.296-.724.292a1.005 1.005 0 0 1-.726-.292l-6.69-5.918a1.007 1.007 0 0 1 1.422-1.424l5.992 5.3 5.992-5.3a1.007 1.007 0 0 1 1.424 1.424z"></path></svg>