<?xml version="1.0" encoding="UTF-8"?>
<svg xmlns="http://www.w3.org/2000/svg" version="1.1" width="500" height="500" viewBox="0 0 500 500"><rect x="0" y="0" width="500" height="500" fill="#ffffff"/><g transform="scale(16.129)"><g transform="translate(1,1)"><g><g transform="translate(3.5,3.5)"><path fill-rule="evenodd" d="M-3.5 -3.5L3.5 -3.5L3.5 3.5L-3.5 3.5ZM-2.5 -2.5L-2.5 2.5L2.5 2.5L2.5 -2.5Z" fill="#000000"/><path fill-rule="evenodd" d="M-1.5 -1.5L1.5 -1.5L1.5 1.5L-1.5 1.5Z" fill="#000000"/></g></g><g><g transform="translate(25.5,3.5)"><g transform="rotate(90)"><path fill-rule="evenodd" d="M-3.5 -3.5L3.5 -3.5L3.5 3.5L-3.5 3.5ZM-2.5 -2.5L-2.5 2.5L2.5 2.5L2.5 -2.5Z" fill="#000000"/><path fill-rule="evenodd" d="M-1.5 -1.5L1.5 -1.5L1.5 1.5L-1.5 1.5Z" fill="#000000"/></g></g></g><g><g transform="translate(3.5,25.5)"><g transform="rotate(-90)"><path fill-rule="evenodd" d="M-3.5 -3.5L3.5 -3.5L3.5 3.5L-3.5 3.5ZM-2.5 -2.5L-2.5 2.5L2.5 2.5L2.5 -2.5Z" fill="#000000"/><path fill-rule="evenodd" d="M-1.5 -1.5L1.5 -1.5L1.5 1.5L-1.5 1.5Z" fill="#000000"/></g></g></g><path fill-rule="evenodd" d="M8 0L8 1L10 1L10 0ZM14 0L14 1L15 1L15 0ZM11 1L11 2L12 2L12 1ZM17 1L17 2L15 2L15 3L14 3L14 2L13 2L13 3L12 3L12 4L11 4L11 5L9 5L9 4L10 4L10 2L9 2L9 3L8 3L8 8L6 8L6 9L8 9L8 10L5 10L5 11L9 11L9 9L11 9L11 8L12 8L12 10L10 10L10 13L11 13L11 11L12 11L12 13L13 13L13 14L11 14L11 16L13 16L13 17L15 17L15 15L16 15L16 17L18 17L18 18L20 18L20 19L16 19L16 18L13 18L13 19L11 19L11 17L10 17L10 14L8 14L8 15L7 15L7 14L6 14L6 15L7 15L7 16L5 16L5 20L4 20L4 21L7 21L7 20L8 20L8 23L9 23L9 24L8 24L8 25L10 25L10 26L9 26L9 27L10 27L10 29L11 29L11 24L12 24L12 22L15 22L15 23L14 23L14 24L13 24L13 25L12 25L12 27L13 27L13 28L12 28L12 29L13 29L13 28L14 28L14 29L15 29L15 28L14 28L14 25L15 25L15 27L17 27L17 26L16 26L16 25L18 25L18 26L20 26L20 25L21 25L21 26L22 26L22 29L23 29L23 28L24 28L24 29L25 29L25 28L27 28L27 29L28 29L28 28L27 28L27 27L29 27L29 26L28 26L28 25L29 25L29 24L28 24L28 23L29 23L29 22L28 22L28 23L27 23L27 21L25 21L25 20L22 20L22 19L23 19L23 17L24 17L24 19L27 19L27 20L28 20L28 19L29 19L29 17L28 17L28 14L27 14L27 13L28 13L28 12L26 12L26 11L27 11L27 9L26 9L26 8L21 8L21 5L20 5L20 4L21 4L21 3L20 3L20 2L21 2L21 1L20 1L20 2L19 2L19 1ZM13 3L13 4L12 4L12 5L11 5L11 7L12 7L12 6L13 6L13 8L14 8L14 6L13 6L13 4L14 4L14 3ZM16 3L16 5L15 5L15 9L13 9L13 10L12 10L12 11L13 11L13 10L17 10L17 11L14 11L14 13L16 13L16 12L17 12L17 14L16 14L16 15L18 15L18 17L19 17L19 15L22 15L22 16L24 16L24 17L25 17L25 18L26 18L26 17L25 17L25 16L27 16L27 15L22 15L22 13L21 13L21 12L20 12L20 13L21 13L21 14L19 14L19 11L22 11L22 12L24 12L24 13L23 13L23 14L24 14L24 13L25 13L25 14L26 14L26 13L25 13L25 11L22 11L22 10L24 10L24 9L22 9L22 10L21 10L21 8L20 8L20 9L19 9L19 8L18 8L18 9L16 9L16 8L17 8L17 7L18 7L18 6L17 6L17 5L18 5L18 3ZM19 3L19 4L20 4L20 3ZM9 6L9 7L10 7L10 6ZM16 6L16 7L17 7L17 6ZM19 6L19 7L20 7L20 6ZM0 8L0 14L2 14L2 15L1 15L1 17L0 17L0 18L2 18L2 16L4 16L4 15L3 15L3 14L2 14L2 13L1 13L1 11L2 11L2 12L4 12L4 11L3 11L3 10L4 10L4 9L5 9L5 8L4 8L4 9L3 9L3 10L1 10L1 8ZM28 8L28 9L29 9L29 8ZM18 9L18 11L17 11L17 12L18 12L18 11L19 11L19 9ZM25 9L25 10L26 10L26 9ZM28 10L28 11L29 11L29 10ZM5 12L5 13L7 13L7 12ZM13 14L13 16L14 16L14 15L15 15L15 14ZM18 14L18 15L19 15L19 14ZM6 17L6 18L7 18L7 17ZM21 17L21 19L22 19L22 17ZM27 17L27 18L28 18L28 17ZM9 18L9 19L8 19L8 20L9 20L9 19L10 19L10 18ZM6 19L6 20L7 20L7 19ZM14 19L14 21L15 21L15 22L16 22L16 23L15 23L15 25L16 25L16 23L18 23L18 24L19 24L19 25L20 25L20 24L19 24L19 23L18 23L18 22L19 22L19 21L18 21L18 20L16 20L16 19ZM0 20L0 21L3 21L3 20ZM10 20L10 22L9 22L9 23L10 23L10 24L11 24L11 23L10 23L10 22L12 22L12 21L13 21L13 20ZM21 21L21 24L24 24L24 21ZM22 22L22 23L23 23L23 22ZM25 23L25 24L26 24L26 25L28 25L28 24L26 24L26 23ZM22 25L22 26L23 26L23 27L24 27L24 26L25 26L25 27L26 27L26 26L25 26L25 25L24 25L24 26L23 26L23 25ZM18 27L18 29L19 29L19 27ZM8 28L8 29L9 29L9 28ZM16 28L16 29L17 29L17 28ZM20 28L20 29L21 29L21 28Z" fill="#000000"/></g></g></svg>
